<mxfile host="app.diagrams.net" modified="2022-03-16T09:53:18.394Z" agent="5.0 (Windows NT 10.0; Win64; x64) AppleWebKit/537.36 (KHTML, like Gecko) Chrome/99.0.4844.51 Safari/537.36" etag="wOpMDSFJDYRmb4rHIjay" version="16.6.4" type="github">
  <diagram name="Page-1" id="822b0af5-4adb-64df-f703-e8dfc1f81529">
    <mxGraphModel dx="1422" dy="762" grid="1" gridSize="10" guides="1" tooltips="1" connect="1" arrows="1" fold="1" page="1" pageScale="1" pageWidth="1100" pageHeight="850" background="none" math="0" shadow="0">
      <root>
        <mxCell id="0" />
        <mxCell id="1" parent="0" />
        <mxCell id="pUI5jw5r8TG5X6O_smbY-1" value="" style="verticalLabelPosition=bottom;sketch=0;aspect=fixed;html=1;verticalAlign=top;strokeColor=none;align=center;outlineConnect=0;shape=mxgraph.citrix.users;" vertex="1" parent="1">
          <mxGeometry x="70" y="230" width="64.5" height="55" as="geometry" />
        </mxCell>
        <mxCell id="pUI5jw5r8TG5X6O_smbY-4" value="" style="image;html=1;image=img/lib/clip_art/telecommunication/iPhone_128x128.png" vertex="1" parent="1">
          <mxGeometry x="220" y="217.5" width="80" height="80" as="geometry" />
        </mxCell>
        <mxCell id="pUI5jw5r8TG5X6O_smbY-5" value="" style="verticalLabelPosition=bottom;sketch=0;aspect=fixed;html=1;verticalAlign=top;strokeColor=none;align=center;outlineConnect=0;shape=mxgraph.citrix.database_server;" vertex="1" parent="1">
          <mxGeometry x="790" y="50" width="80" height="90" as="geometry" />
        </mxCell>
        <mxCell id="pUI5jw5r8TG5X6O_smbY-6" value="" style="verticalLabelPosition=bottom;sketch=0;aspect=fixed;html=1;verticalAlign=top;strokeColor=none;align=center;outlineConnect=0;shape=mxgraph.citrix.web_server;" vertex="1" parent="1">
          <mxGeometry x="400" y="218" width="76.5" height="90" as="geometry" />
        </mxCell>
        <mxCell id="pUI5jw5r8TG5X6O_smbY-7" value="" style="image;html=1;image=img/lib/clip_art/computers/Server_128x128.png" vertex="1" parent="1">
          <mxGeometry x="800" y="290" width="80" height="80" as="geometry" />
        </mxCell>
        <mxCell id="pUI5jw5r8TG5X6O_smbY-8" value="" style="image;html=1;image=img/lib/clip_art/computers/Server_128x128.png" vertex="1" parent="1">
          <mxGeometry x="800" y="410" width="80" height="80" as="geometry" />
        </mxCell>
        <mxCell id="pUI5jw5r8TG5X6O_smbY-10" value="" style="image;html=1;image=img/lib/clip_art/computers/Server_128x128.png" vertex="1" parent="1">
          <mxGeometry x="790" y="188" width="80" height="80" as="geometry" />
        </mxCell>
        <mxCell id="pUI5jw5r8TG5X6O_smbY-11" value="mysql数据库" style="text;html=1;strokeColor=none;fillColor=none;align=center;verticalAlign=middle;whiteSpace=wrap;rounded=0;" vertex="1" parent="1">
          <mxGeometry x="790" y="140" width="79" height="30" as="geometry" />
        </mxCell>
        <mxCell id="pUI5jw5r8TG5X6O_smbY-12" value="redis" style="text;html=1;strokeColor=none;fillColor=none;align=center;verticalAlign=middle;whiteSpace=wrap;rounded=0;" vertex="1" parent="1">
          <mxGeometry x="790" y="250" width="60" height="30" as="geometry" />
        </mxCell>
        <mxCell id="pUI5jw5r8TG5X6O_smbY-13" value="nacos" style="text;html=1;strokeColor=none;fillColor=none;align=center;verticalAlign=middle;whiteSpace=wrap;rounded=0;" vertex="1" parent="1">
          <mxGeometry x="809" y="347.5" width="60" height="30" as="geometry" />
        </mxCell>
        <mxCell id="pUI5jw5r8TG5X6O_smbY-14" value="minio" style="text;html=1;strokeColor=none;fillColor=none;align=center;verticalAlign=middle;whiteSpace=wrap;rounded=0;" vertex="1" parent="1">
          <mxGeometry x="809" y="470" width="60" height="30" as="geometry" />
        </mxCell>
        <mxCell id="pUI5jw5r8TG5X6O_smbY-15" value="nginx" style="text;html=1;strokeColor=none;fillColor=none;align=center;verticalAlign=middle;whiteSpace=wrap;rounded=0;" vertex="1" parent="1">
          <mxGeometry x="400" y="308" width="60" height="30" as="geometry" />
        </mxCell>
      </root>
    </mxGraphModel>
  </diagram>
</mxfile>
